# xmcd CD database file
#
# Track frame offsets:
#	150
#	13652
#	30243
#	42926
#	58968
#	71263
#	86558
#	100589
#	114796
#	128620
#	141037
#	159911
#	180556
#	202626
#	218703
#	242721
#	280025
#	306735
#
# Disc length: 4348 seconds
#
# Revision: 0
# Processed by: cddbd v1.5.2PL0 Copyright (c) Steve Scherf et al.
# Submitted via: CDex 1.79
#
DISCID=e410fa12
DTITLE=Hank Jones - Urbanity and The Trio
DYEAR=1900
DGENRE=Jazz
TTITLE0=Thad's Pad
TTITLE1=Things Are So Pretty In The Spring
TTITLE2=Little Girl Blue
TTITLE3=Odd Number
TTITLE4=Blues For Lady Day
TTITLE5=The Night We Called It A Day
TTITLE6=Yesterdays
TTITLE7=Your Blase
TTITLE8=Tea For Two
TTITLE9=The Blue Room
TTITLE10=We're All Together
TTITLE11=Odd Number
TTITLE12=We Could Make Such Beautiful Music Together
TTITLE13=Now's The Time
TTITLE14=Cyrano
TTITLE15=There's A Small Hotel
TTITLE16=My Funny Valentine
TTITLE17=When Hearts Are Young
EXTD=
EXTT0=
EXTT1=
EXTT2=
EXTT3=
EXTT4=
EXTT5=
EXTT6=
EXTT7=
EXTT8=
EXTT9=
EXTT10=
EXTT11=
EXTT12=
EXTT13=
EXTT14=
EXTT15=
EXTT16=
EXTT17=
PLAYORDER=
